<svg width="19" height="19" viewBox="0 0 19 19" fill="none" xmlns="http://www.w3.org/2000/svg">
<path d="M16.9643 0H2.03571C0.91183 0 0 0.91183 0 2.03571V16.9643C0 18.0882 0.91183 19 2.03571 19H16.9643C18.0882 19 19 18.0882 19 16.9643V2.03571C19 0.91183 18.0882 0 16.9643 0ZM14.8904 6.73482C14.8989 6.85357 14.8989 6.97656 14.8989 7.09531C14.8989 10.7723 12.0998 15.0092 6.98504 15.0092C5.40737 15.0092 3.9442 14.5511 2.71429 13.7623C2.93906 13.7877 3.15536 13.7962 3.38438 13.7962C4.68638 13.7962 5.88237 13.3551 6.83661 12.6087C5.61518 12.5833 4.58884 11.7817 4.23683 10.679C4.66518 10.7426 5.05112 10.7426 5.49219 10.6281C4.21987 10.3694 3.26562 9.24978 3.26562 7.89687V7.86295C3.6346 8.07076 4.06719 8.19799 4.52098 8.21496C4.13947 7.96118 3.82671 7.61691 3.61062 7.21286C3.39454 6.8088 3.28184 6.35754 3.28259 5.89933C3.28259 5.38192 3.4183 4.90692 3.66004 4.49554C5.02991 6.18348 7.08683 7.28616 9.39397 7.40491C8.99955 5.51763 10.4118 3.98661 12.1083 3.98661C12.9098 3.98661 13.6308 4.32165 14.1397 4.86451C14.7674 4.74576 15.3696 4.5125 15.904 4.19442C15.6962 4.83906 15.2594 5.38192 14.6826 5.72545C15.2424 5.66607 15.7853 5.50915 16.2857 5.29286C15.9083 5.84844 15.4333 6.3404 14.8904 6.73482Z" fill="white" fill-opacity="0.8"/>
</svg>
