<svg width="20" height="19" viewBox="0 0 20 19" fill="none" xmlns="http://www.w3.org/2000/svg">
<path d="M18.0936 0H1.94355C1.15189 0 0.518555 0.635983 0.518555 1.35146V17.6485C0.518555 18.364 1.15189 19 1.94355 19H18.0936C18.8852 19 19.5186 18.364 19.5186 17.6485V1.35146C19.5186 0.635983 18.8852 0 18.0936 0ZM6.13939 16.2176H3.36855V7.15481H6.13939V16.2176ZM4.79355 5.88284C3.92272 5.88284 3.13105 5.16736 3.13105 4.21339C3.13105 3.25941 3.84355 2.54393 4.79355 2.54393C5.66439 2.54393 6.45605 3.25941 6.45605 4.21339C6.45605 5.16736 5.66439 5.88284 4.79355 5.88284ZM16.7477 16.1381H13.9769V11.6862C13.9769 10.6527 13.9769 9.22176 12.4727 9.22176C10.9686 9.22176 10.8102 10.4142 10.8102 11.5272V16.0586H8.03939V7.15481H10.6519V8.34728H10.7311C11.1269 7.6318 12.0769 6.83682 13.4227 6.83682C16.2727 6.83682 16.8269 8.74477 16.8269 11.2092V16.1381H16.7477Z" fill="white" fill-opacity="0.8"/>
</svg>
