<svg width="20" height="19" viewBox="0 0 20 19" fill="none" xmlns="http://www.w3.org/2000/svg">
<path d="M9.53456 6.33198C7.79016 6.33198 6.3666 7.75557 6.3666 9.5C6.3666 11.2444 7.79016 12.668 9.53456 12.668C11.279 12.668 12.7025 11.2444 12.7025 9.5C12.7025 7.75557 11.279 6.33198 9.53456 6.33198ZM19.036 9.5C19.036 8.18811 19.0479 6.88811 18.9743 5.5786C18.9006 4.05757 18.5536 2.70766 17.4414 1.59541C16.3268 0.480781 14.9793 0.136173 13.4583 0.0624986C12.1464 -0.0111762 10.8464 0.000706907 9.53693 0.000706907C8.22507 0.000706907 6.92509 -0.0111762 5.61561 0.0624986C4.09461 0.136173 2.74472 0.483158 1.63249 1.59541C0.517882 2.71004 0.17328 4.05757 0.0996068 5.5786C0.0259334 6.89049 0.0378163 8.19049 0.0378163 9.5C0.0378163 10.8095 0.0259334 12.1119 0.0996068 13.4214C0.17328 14.9424 0.520258 16.2923 1.63249 17.4046C2.7471 18.5192 4.09461 18.8638 5.61561 18.9375C6.92747 19.0112 8.22745 18.9993 9.53693 18.9993C10.8488 18.9993 12.1488 19.0112 13.4583 18.9375C14.9793 18.8638 16.3291 18.5168 17.4414 17.4046C18.556 16.29 18.9006 14.9424 18.9743 13.4214C19.0503 12.1119 19.036 10.8119 19.036 9.5ZM9.53456 14.3744C6.83716 14.3744 4.66023 12.1974 4.66023 9.5C4.66023 6.80255 6.83716 4.62558 9.53456 4.62558C12.232 4.62558 14.4089 6.80255 14.4089 9.5C14.4089 12.1974 12.232 14.3744 9.53456 14.3744ZM14.6085 5.56434C13.9787 5.56434 13.4701 5.05575 13.4701 4.42595C13.4701 3.79615 13.9787 3.28755 14.6085 3.28755C15.2383 3.28755 15.7469 3.79615 15.7469 4.42595C15.7471 4.5755 15.7178 4.72361 15.6606 4.86181C15.6035 5.00001 15.5196 5.12558 15.4139 5.23133C15.3081 5.33708 15.1826 5.42093 15.0444 5.47807C14.9062 5.53521 14.7581 5.56453 14.6085 5.56434Z" fill="white" fill-opacity="0.8"/>
</svg>
