<svg width="123" height="32" viewBox="0 0 123 32" fill="none" xmlns="http://www.w3.org/2000/svg">
<g clip-path="url(#clip0_614_1109)">
<path d="M46.1694 29.6279C45.8288 29.6279 45.5554 29.7371 45.3574 29.9517C45.1613 30.1643 45.0623 30.4543 45.0623 30.8179C45.0623 31.1755 45.1633 31.4656 45.3613 31.6781C45.5614 31.8927 45.8327 32.002 46.1694 32.002C46.4943 32.002 46.7636 31.8927 46.9657 31.6801C47.1677 31.4676 47.2687 31.1775 47.2687 30.8199C47.2687 30.4583 47.1717 30.1663 46.9776 29.9537C46.7815 29.7371 46.5101 29.6279 46.1694 29.6279Z" fill="black"/>
<path d="M43.6382 29.6279C43.2975 29.6279 43.0242 29.7371 42.8261 29.9517C42.63 30.1643 42.531 30.4543 42.531 30.8179C42.531 31.1755 42.632 31.4656 42.8301 31.6781C43.0301 31.8927 43.3015 32.002 43.6382 32.002C43.963 32.002 44.2304 31.8967 44.4305 31.6881C44.6286 31.4795 44.7296 31.1874 44.7296 30.8199C44.7296 30.4524 44.6325 30.1603 44.4384 29.9497C44.2423 29.7351 43.973 29.6279 43.6382 29.6279Z" fill="black"/>
<path d="M52.0541 20.187H51.6956C52.0343 19.7281 52.5354 19.2711 53.191 18.8261C53.9298 18.3235 54.7339 17.9381 55.5836 17.6798C55.6133 17.6718 55.6985 17.644 55.6985 17.644C55.6985 17.644 55.342 15.6792 54.7993 15.4368C54.7755 15.4269 54.726 15.4626 54.7003 15.4725C53.4267 15.9275 52.2937 16.5911 51.3291 17.4454C50.4418 18.2301 49.7327 19.142 49.2138 20.1552C49.1227 20.332 49.0811 20.5287 49.0791 20.7254V20.8863C49.0751 21.6115 49.6594 22.2015 50.3824 22.2015H51.7114C52.4383 22.2015 53.0068 22.3565 53.397 22.6605C53.7852 22.9625 53.9733 23.3876 53.9733 23.9598V25.5551C53.9733 25.9386 53.6624 26.2505 53.2801 26.2505H46.9796C46.5933 26.2505 46.2784 25.9366 46.2784 25.5472V21.4267C46.2784 20.9956 45.9298 20.646 45.5 20.646H44.6206C44.1908 20.646 43.8422 20.9956 43.8422 21.4267V25.9545C43.8422 26.1174 43.7115 26.2485 43.549 26.2485H40.3661C40.1839 26.2485 40.0373 26.1015 40.0373 25.9187V17.4732C40.0373 17.042 39.6887 16.6924 39.2589 16.6924H38.3795C37.9497 16.6924 37.6011 17.042 37.6011 17.4732V27.2061C37.6011 27.7902 38.0745 28.265 38.6568 28.265H54.934C55.75 28.265 56.4135 27.6014 56.4135 26.7809V23.6737C56.4116 21.3612 54.9459 20.187 52.0541 20.187Z" fill="black"/>
<path d="M72.6432 16.3328L72.4155 16.3705C72.3184 16.3209 72.2372 16.2493 72.1659 16.156C72.0926 16.0586 72.0569 15.9454 72.0569 15.8142C72.0569 15.6195 72.1104 15.4745 72.2194 15.3672C72.3303 15.26 72.4749 15.2083 72.6591 15.2083C72.9265 15.2083 73.182 15.2679 73.4177 15.3871L73.5246 15.4407L73.9029 14.4812L73.8178 14.4355C73.4771 14.2467 73.0493 14.1514 72.5422 14.1514C72.0193 14.1514 71.5955 14.2805 71.2805 14.5328C70.9597 14.7911 70.7953 15.1566 70.7953 15.6176C70.7953 15.8738 70.8666 16.1003 71.0052 16.2911C71.0825 16.3964 71.1716 16.4897 71.2726 16.5692L70.613 16.6765V17.6718L70.7517 17.6341C70.821 17.6142 71.1141 17.5665 72.1223 17.4473C72.9324 17.35 73.5207 17.2904 73.8732 17.2645L73.9762 17.2566V16.1659L73.8574 16.1758C73.5583 16.2017 73.1503 16.2553 72.6432 16.3328Z" fill="black"/>
<path d="M70.9596 24.2101H68.8343C68.353 24.2101 67.9609 23.8187 67.9609 23.3339V15.258C67.9609 14.9242 67.6915 14.654 67.3587 14.654H66.1267C65.794 14.654 65.5246 14.9242 65.5246 15.258V25.5332C65.5246 26.2564 65.3523 26.8226 65.0097 27.216C64.671 27.6054 64.1302 27.8021 63.4013 27.8021H62.9577C62.3892 27.8021 61.9456 27.6034 61.6009 27.1961C61.2563 26.7888 61.082 26.2286 61.082 25.5352C61.082 25.0366 61.1275 24.4922 61.2186 23.9141C61.3177 23.2843 61.4563 22.6744 61.6286 22.1062C61.3038 21.6691 59.9154 21.8201 59.4499 22.1042C59.436 22.1121 59.4261 22.1499 59.4202 22.1638C59.1786 22.6386 58.9884 23.177 58.8517 23.769C58.7151 24.3611 58.6458 24.9491 58.6458 25.5193C58.6458 26.3557 58.8121 27.1067 59.1409 27.7544C59.4717 28.406 59.9589 28.9186 60.5888 29.2782C61.2167 29.6358 61.9634 29.8186 62.8071 29.8186H63.4627C66.2179 29.8186 67.7252 28.6107 67.943 26.2286H72.9383C73.4335 26.2286 73.8355 25.8253 73.8355 25.3286V19.2115C73.8355 18.8777 73.5662 18.6076 73.2334 18.6076H72.0014C71.6687 18.6076 71.3993 18.8777 71.3993 19.2115V23.773C71.3934 24.0154 71.1993 24.2101 70.9596 24.2101Z" fill="black"/>
<path d="M80.7759 24.2101H80.1837C79.4231 24.2101 78.8051 23.5923 78.8051 22.8274V15.8739C78.8051 15.1984 78.2585 14.652 77.587 14.652C76.9136 14.652 76.3689 15.2004 76.3689 15.8739V24.8419C76.3689 25.6048 76.9849 26.2246 77.7474 26.2246H83.2141C83.9826 26.2246 84.6046 25.6008 84.6046 24.83V19.8294C84.6046 19.1539 84.0579 18.6076 83.3864 18.6076C82.713 18.6076 82.1683 19.1559 82.1683 19.8294V22.8154C82.1663 23.5863 81.5444 24.2101 80.7759 24.2101Z" fill="black"/>
<path d="M83.2577 27.5895C82.9111 27.5895 82.6357 27.6988 82.4396 27.9133C82.2436 28.1259 82.1445 28.416 82.1445 28.7796C82.1445 29.1372 82.2455 29.4272 82.4436 29.6398C82.6437 29.8544 82.917 29.9636 83.2577 29.9636C83.5785 29.9636 83.8439 29.8544 84.046 29.6418C84.248 29.4292 84.349 29.1391 84.349 28.7815C84.349 28.414 84.25 28.1219 84.0539 27.9114C83.8578 27.6968 83.5884 27.5895 83.2577 27.5895Z" fill="black"/>
<path d="M103.778 20.336C103.463 19.7877 103.013 19.3566 102.443 19.0566C101.874 18.7586 101.234 18.6056 100.541 18.6056C100.125 18.6056 99.6379 18.6811 99.0913 18.8281C98.5446 18.9751 98.0197 19.1937 97.5345 19.4738L97.5087 19.4877L97.4949 19.5115C97.277 19.8771 97.0928 20.3201 96.9462 20.8287C96.7996 21.3373 96.7244 21.8201 96.7244 22.2611C96.7244 22.9684 96.8412 23.624 97.071 24.2081H93.9435V20.0261C93.9435 19.2433 93.3117 18.6076 92.5293 18.6076H91.5707C90.6199 18.6076 89.7682 18.7705 89.0393 19.0903C88.3045 19.4142 87.7301 19.887 87.3261 20.4989C86.924 21.1108 86.718 21.828 86.718 22.6346C86.718 23.773 87.0171 24.6651 87.6073 25.2869C88.1976 25.9107 89.0492 26.2266 90.1386 26.2266H91.5053C91.4993 26.7173 91.3548 27.1067 91.0794 27.3849C90.7962 27.671 90.3842 27.816 89.8554 27.816C89.4791 27.816 89.1107 27.7743 88.7601 27.6908C88.4115 27.6074 88.0351 27.4624 87.643 27.2577C87.643 27.2577 87.5717 27.2001 87.5459 27.2081C87.0567 27.361 86.5793 29.0239 86.5793 29.0239C86.5793 29.0239 86.6467 29.0637 86.6685 29.0776C87.132 29.3557 87.6232 29.5504 88.1243 29.6557C88.6214 29.761 89.2176 29.8146 89.897 29.8146C91.1706 29.8146 92.1728 29.4888 92.8759 28.8451C93.5593 28.2193 93.9178 27.3392 93.9395 26.2246H100.072C100.842 26.2246 101.557 26.0558 102.195 25.724C102.835 25.3902 103.344 24.9174 103.704 24.3194C104.065 23.7214 104.247 23.024 104.247 22.2492C104.251 21.528 104.092 20.8844 103.778 20.336ZM101.797 22.136C101.817 22.6684 101.642 23.1889 101.28 23.5783C100.89 23.9975 100.389 24.2101 99.7905 24.2101C99.4934 24.2101 99.2359 24.0055 99.1606 23.7174C99.0517 23.3002 98.9982 22.9187 98.9982 22.577C98.9982 22.3803 99.0061 22.1876 99.0239 21.9969C99.0933 21.24 99.7251 20.6281 100.484 20.6221C100.488 20.6221 100.492 20.6221 100.496 20.6221C100.892 20.6221 101.199 20.7632 101.436 21.0532C101.658 21.3234 101.779 21.687 101.797 22.136ZM91.5053 20.9936V24.2101H90.5902C90.1267 24.2101 89.7801 24.081 89.5603 23.8247C89.3365 23.5644 89.2236 23.1432 89.2236 22.575C89.2236 21.9512 89.3919 21.4645 89.7266 21.1267C90.0594 20.791 90.5348 20.6201 91.1369 20.6201C91.3409 20.6221 91.5053 20.789 91.5053 20.9936Z" fill="black"/>
<path d="M45.4923 7.8237V11.4177C45.4923 12.117 44.9278 12.6832 44.2306 12.6832C43.5334 12.6832 42.9689 12.117 42.9689 11.4177V7.75814C42.9689 7.04292 42.8599 6.51843 42.644 6.18268C42.4262 5.84692 42.0756 5.68004 41.5923 5.68004C41.107 5.68004 40.6792 5.86083 40.3068 6.2244C39.9345 6.58797 39.7463 7.12041 39.7463 7.8237V11.4256C39.7463 12.119 39.1858 12.6832 38.4925 12.6832C37.8013 12.6832 37.2388 12.121 37.2388 11.4256V4.69066C37.2388 4.12643 37.6943 3.66948 38.2568 3.66948H38.7243C39.2868 3.66948 39.7423 4.12643 39.7423 4.69066C40.4336 3.90789 41.2239 3.51849 42.1152 3.51849C42.6837 3.51849 43.1986 3.68538 43.6601 4.02113C44.1216 4.35689 44.4702 4.76416 44.7039 5.24495C45.0486 4.6986 45.514 4.27345 46.0983 3.97146C46.6826 3.66948 47.2709 3.51849 47.8611 3.51849C48.9188 3.51849 49.7705 3.83438 50.4162 4.46417C51.0619 5.09594 51.3848 6.00785 51.3848 7.20385V11.4177C51.3848 12.117 50.8203 12.6832 50.1231 12.6832C49.4259 12.6832 48.8614 12.117 48.8614 11.4177V7.75814C48.8614 6.3734 48.3543 5.68004 47.3422 5.68004C46.8411 5.68004 46.4073 5.86083 46.0389 6.2244C45.6765 6.58797 45.4923 7.12041 45.4923 7.8237Z" fill="black"/>
<path d="M62.6488 8.17734C62.6488 9.4846 62.1972 10.5852 61.296 11.4793C60.3948 12.3733 59.2599 12.8203 57.8971 12.8203C56.5325 12.8203 55.3995 12.3733 54.4983 11.4793C53.5971 10.5852 53.1455 9.4846 53.1455 8.17734C53.1455 6.87008 53.5971 5.76745 54.4983 4.86747C55.3995 3.96948 56.5325 3.51849 57.8971 3.51849C59.2618 3.51849 60.3948 3.96749 61.296 4.86747C62.1972 5.76745 62.6488 6.87008 62.6488 8.17734ZM55.6669 8.17734C55.6669 8.91441 55.8749 9.5144 56.2928 9.97929C56.7107 10.4422 57.2455 10.6746 57.8971 10.6746C58.5488 10.6746 59.0836 10.4422 59.5015 9.97929C59.9194 9.51638 60.1274 8.9164 60.1274 8.17734C60.1274 7.44027 59.9194 6.83631 59.5015 6.36744C59.0836 5.89858 58.5488 5.66414 57.8971 5.66414C57.2455 5.66414 56.7107 5.89858 56.2928 6.36744C55.8749 6.83631 55.6669 7.44027 55.6669 8.17734Z" fill="black"/>
<path d="M69.6802 3.51845C70.7716 3.51845 71.7243 3.94559 72.5363 4.79988C73.3484 5.65417 73.7564 6.75083 73.7564 8.09187C73.7564 9.4329 73.3385 10.5554 72.5027 11.4593C71.6668 12.3653 70.7181 12.8163 69.6545 12.8163C68.5908 12.8163 67.7074 12.3752 67.0063 11.4931C67.0063 12.1507 66.4755 12.6832 65.8199 12.6832H65.6872C65.0316 12.6832 64.5007 12.1507 64.5007 11.4931V1.5079C64.5007 0.814532 65.0613 0.250305 65.7545 0.250305C66.4458 0.250305 67.0083 0.812545 67.0083 1.5079V4.67472C67.6975 3.90387 68.5888 3.51845 69.6802 3.51845ZM66.9746 8.18524C66.9746 8.91635 67.1786 9.51435 67.5846 9.97726C67.9907 10.4402 68.4839 10.6726 69.0622 10.6726C69.6406 10.6726 70.1476 10.4402 70.5814 9.97726C71.0152 9.51435 71.2331 8.91834 71.2331 8.19319C71.2331 7.46804 71.0211 6.85812 70.5973 6.3674C70.1734 5.87668 69.6683 5.63033 69.0781 5.63033C68.4878 5.63033 67.9887 5.87271 67.5827 6.35945C67.1766 6.84421 66.9746 7.45413 66.9746 8.18524Z" fill="black"/>
<path d="M75.8362 2.52114C75.553 2.23704 75.4104 1.88738 75.4104 1.47414C75.4104 1.06091 75.553 0.711244 75.8362 0.427143C76.1195 0.143043 76.4681 0 76.8801 0C77.292 0 77.6406 0.143043 77.9239 0.427143C78.2071 0.711244 78.3497 1.06091 78.3497 1.47414C78.3497 1.88738 78.2071 2.23704 77.9239 2.52114C77.6406 2.80524 77.292 2.94828 76.8801 2.94828C76.4681 2.94828 76.1195 2.80723 75.8362 2.52114ZM76.8801 12.6832C76.1888 12.6832 75.6263 12.1209 75.6263 11.4256V4.92705C75.6263 4.23369 76.1868 3.66946 76.8801 3.66946C77.5713 3.66946 78.1338 4.2317 78.1338 4.92705V11.4276C78.1319 12.1209 77.5713 12.6832 76.8801 12.6832Z" fill="black"/>
<path d="M81.7584 12.6832C81.0671 12.6832 80.5046 12.1209 80.5046 11.4256V1.50789C80.5046 0.814532 81.0652 0.250305 81.7584 0.250305C82.4497 0.250305 83.0122 0.812545 83.0122 1.50789V11.4276C83.0102 12.1209 82.4497 12.6832 81.7584 12.6832Z" fill="black"/>
<path d="M92.4124 10.5594C92.8541 11.0382 92.7352 11.8011 92.1747 12.1309C91.4003 12.5898 90.5407 12.8183 89.5998 12.8183C88.2351 12.8183 87.1081 12.3971 86.2168 11.5527C85.3255 10.7104 84.8799 9.57794 84.8799 8.15943C84.8799 6.74091 85.3335 5.61246 86.2406 4.77407C87.1478 3.93568 88.2193 3.51648 89.4552 3.51648C90.6912 3.51648 91.7409 3.88998 92.6045 4.63897C93.4681 5.38796 93.8999 6.41509 93.8999 7.72235C93.8999 8.46339 93.3017 9.06338 92.5629 9.06338H87.3518C87.429 9.55609 87.6865 9.9574 88.1203 10.2693C88.554 10.5832 89.0452 10.7382 89.5899 10.7382C90.1762 10.7382 90.6932 10.6071 91.1408 10.3428C91.5567 10.1024 92.0876 10.2057 92.4124 10.5594ZM90.7605 6.03166C90.4159 5.7416 89.994 5.59657 89.4988 5.59657C89.0036 5.59657 88.5501 5.74756 88.1381 6.04954C87.7261 6.35152 87.4864 6.7588 87.4191 7.27335H91.3607C91.3072 6.73495 91.1051 6.32172 90.7605 6.03166Z" fill="black"/>
<path d="M96.9581 12.6832C96.2669 12.6832 95.7043 12.1209 95.7043 11.4256V1.50789C95.7043 0.814532 96.2649 0.250305 96.9581 0.250305C97.6494 0.250305 98.2119 0.812545 98.2119 1.50789V6.6356L100.66 4.01711C100.878 3.78467 101.181 3.65355 101.498 3.65355C102.506 3.65355 103.025 4.86147 102.336 5.59655L100.733 7.30711L103.015 10.756C103.562 11.5825 102.971 12.6851 101.983 12.6851C101.569 12.6851 101.181 12.4765 100.951 12.1309L99.0299 9.23423L98.2119 10.0885V11.4295C98.2119 12.1209 97.6494 12.6832 96.9581 12.6832Z" fill="black"/>
<path d="M107.198 16.2354C106.669 16.2354 106.16 16.1063 105.667 15.848C105.101 15.552 104.914 14.8229 105.249 14.2765C105.526 13.8216 106.093 13.613 106.588 13.8116C106.772 13.8851 106.958 13.9229 107.149 13.9229C107.382 13.9229 107.582 13.8077 107.751 13.5792C107.917 13.3507 108 13.1064 108 12.8501C108 12.6196 107.065 10.1263 105.198 5.37208C104.877 4.55554 105.477 3.66947 106.352 3.66947C106.863 3.66947 107.323 3.98337 107.509 4.46018L109.389 9.28193L111.268 4.46018C111.455 3.98337 111.914 3.66748 112.425 3.66748C113.301 3.66748 113.903 4.55356 113.58 5.37009L110.074 14.2904C109.828 14.9043 109.448 15.3811 108.929 15.7229C108.408 16.0646 107.832 16.2354 107.198 16.2354Z" fill="black"/>
<path d="M121.915 12.6832H121.73C121.13 12.6832 120.645 12.1964 120.645 11.5945C119.999 12.409 119.199 12.8183 118.248 12.8183C117.296 12.8183 116.498 12.5421 115.852 11.9898C115.206 11.4375 114.883 10.7004 114.883 9.7786C114.883 8.85676 115.218 8.16737 115.886 7.70844C116.553 7.2515 117.466 7.02104 118.625 7.02104H120.497V6.97137C120.497 6.0098 119.989 5.531 118.977 5.531C118.544 5.531 118.084 5.61842 117.599 5.79126C117.421 5.85484 117.252 5.92437 117.094 5.99987C116.652 6.21046 116.123 6.07933 115.846 5.67404C115.505 5.17935 115.676 4.49394 116.21 4.22573C117.147 3.75687 118.175 3.52045 119.294 3.52045C120.386 3.52045 121.277 3.79461 121.966 4.34096C122.657 4.88731 123.002 5.75351 123.002 6.93759V11.5964C123 12.1964 122.515 12.6832 121.915 12.6832ZM120.479 9.24814V8.81305H118.908C117.906 8.81305 117.405 9.12695 117.405 9.75078C117.405 10.0746 117.524 10.323 117.763 10.4958C118.003 10.6686 118.346 10.7561 118.791 10.7561C119.237 10.7561 119.629 10.619 119.97 10.3448C120.308 10.0726 120.479 9.70707 120.479 9.24814Z" fill="black"/>
<path d="M14.4728 1.3927C6.48077 1.3927 0 7.89124 0 15.9096C0 23.928 6.48077 30.4265 14.4728 30.4265C22.4668 30.4265 28.9456 23.926 28.9456 15.9096C28.9456 7.89124 22.4668 1.3927 14.4728 1.3927ZM17.9826 21.9711C17.9826 22.4062 17.626 22.7638 17.1923 22.7638H11.3156C10.8818 22.7638 10.5253 22.4062 10.5253 21.9711V10.2872C10.5253 9.85213 10.8799 9.49452 11.3156 9.49452H17.1923C17.626 9.49452 17.9826 9.85213 17.9826 10.2872V21.9711Z" fill="black"/>
</g>
<defs>
<clipPath id="clip0_614_1109">
<rect width="123" height="32" fill="white"/>
</clipPath>
</defs>
</svg>
