<svg width="123" height="32" viewBox="0 0 123 32" fill="none" xmlns="http://www.w3.org/2000/svg">
<g clip-path="url(#clip0_614_1556)">
<path d="M46.1694 29.6279C45.8288 29.6279 45.5554 29.7372 45.3574 29.9518C45.1613 30.1643 45.0623 30.4544 45.0623 30.818C45.0623 31.1756 45.1633 31.4656 45.3613 31.6782C45.5614 31.8928 45.8327 32.002 46.1694 32.002C46.4943 32.002 46.7636 31.8928 46.9657 31.6802C47.1677 31.4676 47.2687 31.1776 47.2687 30.82C47.2687 30.4584 47.1717 30.1663 46.9776 29.9537C46.7815 29.7372 46.5101 29.6279 46.1694 29.6279Z" fill="white"/>
<path d="M43.6382 29.6279C43.2975 29.6279 43.0242 29.7372 42.8261 29.9518C42.63 30.1643 42.531 30.4544 42.531 30.818C42.531 31.1756 42.632 31.4656 42.8301 31.6782C43.0301 31.8928 43.3015 32.002 43.6382 32.002C43.963 32.002 44.2304 31.8967 44.4305 31.6881C44.6286 31.4795 44.7296 31.1875 44.7296 30.82C44.7296 30.4524 44.6325 30.1604 44.4384 29.9498C44.2423 29.7352 43.973 29.6279 43.6382 29.6279Z" fill="white"/>
<path d="M52.0541 20.187H51.6956C52.0343 19.7281 52.5354 19.2711 53.191 18.8261C53.9298 18.3235 54.7339 17.9381 55.5836 17.6798C55.6133 17.6718 55.6985 17.644 55.6985 17.644C55.6985 17.644 55.342 15.6792 54.7993 15.4368C54.7755 15.4269 54.726 15.4626 54.7003 15.4725C53.4267 15.9275 52.2937 16.5911 51.3291 17.4454C50.4418 18.2301 49.7327 19.142 49.2138 20.1552C49.1227 20.332 49.0811 20.5287 49.0791 20.7254V20.8863C49.0751 21.6115 49.6594 22.2015 50.3824 22.2015H51.7114C52.4383 22.2015 53.0068 22.3565 53.397 22.6605C53.7852 22.9625 53.9733 23.3876 53.9733 23.9598V25.5551C53.9733 25.9386 53.6624 26.2505 53.2801 26.2505H46.9796C46.5933 26.2505 46.2784 25.9366 46.2784 25.5472V21.4267C46.2784 20.9956 45.9298 20.646 45.5 20.646H44.6206C44.1908 20.646 43.8422 20.9956 43.8422 21.4267V25.9545C43.8422 26.1174 43.7115 26.2485 43.549 26.2485H40.3661C40.1839 26.2485 40.0373 26.1015 40.0373 25.9187V17.4732C40.0373 17.042 39.6887 16.6924 39.2589 16.6924H38.3795C37.9497 16.6924 37.6011 17.042 37.6011 17.4732V27.2061C37.6011 27.7902 38.0745 28.265 38.6568 28.265H54.934C55.75 28.265 56.4135 27.6014 56.4135 26.7809V23.6737C56.4116 21.3612 54.9459 20.187 52.0541 20.187Z" fill="white"/>
<path d="M72.6432 16.3328L72.4155 16.3705C72.3184 16.3209 72.2372 16.2493 72.1659 16.156C72.0926 16.0586 72.0569 15.9454 72.0569 15.8142C72.0569 15.6195 72.1104 15.4745 72.2194 15.3672C72.3303 15.26 72.4749 15.2083 72.6591 15.2083C72.9265 15.2083 73.182 15.2679 73.4177 15.3871L73.5246 15.4407L73.9029 14.4812L73.8178 14.4355C73.4771 14.2467 73.0493 14.1514 72.5422 14.1514C72.0193 14.1514 71.5955 14.2805 71.2805 14.5328C70.9597 14.7911 70.7953 15.1566 70.7953 15.6176C70.7953 15.8738 70.8666 16.1003 71.0052 16.2911C71.0825 16.3964 71.1716 16.4897 71.2726 16.5692L70.613 16.6765V17.6718L70.7517 17.6341C70.821 17.6142 71.1141 17.5665 72.1223 17.4473C72.9324 17.35 73.5207 17.2904 73.8732 17.2645L73.9762 17.2566V16.1659L73.8574 16.1758C73.5583 16.2017 73.1503 16.2553 72.6432 16.3328Z" fill="white"/>
<path d="M70.9596 24.2099H68.8343C68.353 24.2099 67.9609 23.8185 67.9609 23.3338V15.2578C67.9609 14.924 67.6915 14.6538 67.3587 14.6538H66.1267C65.794 14.6538 65.5246 14.924 65.5246 15.2578V25.533C65.5246 26.2562 65.3523 26.8224 65.0097 27.2158C64.671 27.6052 64.1302 27.8019 63.4013 27.8019H62.9577C62.3892 27.8019 61.9456 27.6032 61.6009 27.1959C61.2563 26.7887 61.082 26.2284 61.082 25.535C61.082 25.0364 61.1275 24.492 61.2186 23.9139C61.3177 23.2841 61.4563 22.6742 61.6286 22.106C61.3038 21.6689 59.9154 21.8199 59.4499 22.104C59.436 22.1119 59.4261 22.1497 59.4202 22.1636C59.1786 22.6384 58.9884 23.1768 58.8517 23.7688C58.7151 24.3609 58.6458 24.949 58.6458 25.5191C58.6458 26.3555 58.8121 27.1065 59.1409 27.7542C59.4717 28.4058 59.9589 28.9184 60.5888 29.278C61.2167 29.6356 61.9634 29.8184 62.8071 29.8184H63.4627C66.2179 29.8184 67.7252 28.6105 67.943 26.2284H72.9383C73.4335 26.2284 73.8355 25.8251 73.8355 25.3284V19.2113C73.8355 18.8776 73.5662 18.6074 73.2334 18.6074H72.0014C71.6687 18.6074 71.3993 18.8776 71.3993 19.2113V23.7728C71.3934 24.0152 71.1993 24.2099 70.9596 24.2099Z" fill="white"/>
<path d="M80.7759 24.2099H80.1837C79.4231 24.2099 78.8051 23.5921 78.8051 22.8272V15.8737C78.8051 15.1982 78.2585 14.6519 77.587 14.6519C76.9136 14.6519 76.3689 15.2002 76.3689 15.8737V24.8417C76.3689 25.6046 76.9849 26.2245 77.7474 26.2245H83.2141C83.9826 26.2245 84.6046 25.6006 84.6046 24.8298V19.8292C84.6046 19.1537 84.0579 18.6074 83.3864 18.6074C82.713 18.6074 82.1683 19.1557 82.1683 19.8292V22.8153C82.1663 23.5861 81.5444 24.2099 80.7759 24.2099Z" fill="white"/>
<path d="M83.2577 27.5894C82.9111 27.5894 82.6357 27.6986 82.4396 27.9132C82.2436 28.1258 82.1445 28.4158 82.1445 28.7794C82.1445 29.137 82.2455 29.4271 82.4436 29.6396C82.6437 29.8542 82.917 29.9635 83.2577 29.9635C83.5785 29.9635 83.8439 29.8542 84.046 29.6416C84.248 29.4291 84.349 29.139 84.349 28.7814C84.349 28.4138 84.25 28.1218 84.0539 27.9112C83.8578 27.6966 83.5884 27.5894 83.2577 27.5894Z" fill="white"/>
<path d="M103.778 20.3359C103.463 19.7876 103.013 19.3564 102.443 19.0565C101.874 18.7584 101.234 18.6055 100.541 18.6055C100.125 18.6055 99.6379 18.681 99.0913 18.828C98.5446 18.975 98.0197 19.1935 97.5345 19.4737L97.5087 19.4876L97.4949 19.5114C97.277 19.877 97.0928 20.32 96.9462 20.8286C96.7996 21.3372 96.7244 21.82 96.7244 22.261C96.7244 22.9683 96.8412 23.6239 97.071 24.208H93.9435V20.026C93.9435 19.2432 93.3117 18.6075 92.5293 18.6075H91.5707C90.6199 18.6075 89.7682 18.7704 89.0393 19.0902C88.3045 19.4141 87.7301 19.8869 87.3261 20.4988C86.924 21.1107 86.718 21.8279 86.718 22.6345C86.718 23.7729 87.0171 24.6649 87.6073 25.2868C88.1976 25.9106 89.0492 26.2265 90.1386 26.2265H91.5053C91.4993 26.7172 91.3548 27.1066 91.0794 27.3848C90.7962 27.6708 90.3842 27.8159 89.8554 27.8159C89.4791 27.8159 89.1107 27.7742 88.7601 27.6907C88.4115 27.6073 88.0351 27.4622 87.643 27.2576C87.643 27.2576 87.5717 27.2 87.5459 27.2079C87.0567 27.3609 86.5793 29.0238 86.5793 29.0238C86.5793 29.0238 86.6467 29.0635 86.6685 29.0774C87.132 29.3556 87.6232 29.5503 88.1243 29.6556C88.6214 29.7609 89.2176 29.8145 89.897 29.8145C91.1706 29.8145 92.1728 29.4887 92.8759 28.845C93.5593 28.2192 93.9178 27.3391 93.9395 26.2245H100.072C100.842 26.2245 101.557 26.0556 102.195 25.7239C102.835 25.3901 103.344 24.9173 103.704 24.3193C104.065 23.7213 104.247 23.0239 104.247 22.2491C104.251 21.5279 104.092 20.8842 103.778 20.3359ZM101.797 22.1359C101.817 22.6683 101.642 23.1888 101.28 23.5782C100.89 23.9974 100.389 24.21 99.7905 24.21C99.4934 24.21 99.2359 24.0054 99.1606 23.7173C99.0517 23.3001 98.9982 22.9186 98.9982 22.5769C98.9982 22.3802 99.0061 22.1875 99.0239 21.9968C99.0933 21.2399 99.7251 20.6279 100.484 20.622C100.488 20.622 100.492 20.622 100.496 20.622C100.892 20.622 101.199 20.763 101.436 21.0531C101.658 21.3233 101.779 21.6869 101.797 22.1359ZM91.5053 20.9935V24.21H90.5902C90.1267 24.21 89.7801 24.0809 89.5603 23.8246C89.3365 23.5643 89.2236 23.1431 89.2236 22.5749C89.2236 21.9511 89.3919 21.4644 89.7266 21.1266C90.0594 20.7909 90.5348 20.62 91.1369 20.62C91.3409 20.622 91.5053 20.7889 91.5053 20.9935Z" fill="white"/>
<path d="M45.4923 7.82376V11.4177C45.4923 12.1171 44.9278 12.6833 44.2306 12.6833C43.5334 12.6833 42.9689 12.1171 42.9689 11.4177V7.7582C42.9689 7.04299 42.8599 6.51849 42.644 6.18274C42.4262 5.84698 42.0756 5.6801 41.5923 5.6801C41.107 5.6801 40.6792 5.86089 40.3068 6.22446C39.9345 6.58803 39.7463 7.12047 39.7463 7.82376V11.4257C39.7463 12.119 39.1858 12.6833 38.4925 12.6833C37.8013 12.6833 37.2388 12.121 37.2388 11.4257V4.69072C37.2388 4.12649 37.6943 3.66954 38.2568 3.66954H38.7243C39.2868 3.66954 39.7423 4.12649 39.7423 4.69072C40.4336 3.90795 41.2239 3.51855 42.1152 3.51855C42.6837 3.51855 43.1986 3.68544 43.6601 4.02119C44.1216 4.35695 44.4702 4.76422 44.7039 5.24501C45.0486 4.69866 45.514 4.27351 46.0983 3.97153C46.6826 3.66955 47.2709 3.51855 47.8611 3.51855C48.9188 3.51855 49.7705 3.83444 50.4162 4.46423C51.0619 5.09601 51.3848 6.00791 51.3848 7.20391V11.4177C51.3848 12.1171 50.8203 12.6833 50.1231 12.6833C49.4259 12.6833 48.8614 12.1171 48.8614 11.4177V7.7582C48.8614 6.37346 48.3543 5.6801 47.3422 5.6801C46.8411 5.6801 46.4073 5.86089 46.0389 6.22446C45.6765 6.58803 45.4923 7.12047 45.4923 7.82376Z" fill="white"/>
<path d="M62.6488 8.1774C62.6488 9.48466 62.1972 10.5853 61.296 11.4793C60.3948 12.3733 59.2599 12.8203 57.8971 12.8203C56.5325 12.8203 55.3995 12.3733 54.4983 11.4793C53.5971 10.5853 53.1455 9.48466 53.1455 8.1774C53.1455 6.87014 53.5971 5.76751 54.4983 4.86753C55.3995 3.96954 56.5325 3.51855 57.8971 3.51855C59.2618 3.51855 60.3948 3.96755 61.296 4.86753C62.1972 5.76751 62.6488 6.87014 62.6488 8.1774ZM55.6669 8.1774C55.6669 8.91447 55.8749 9.51446 56.2928 9.97935C56.7107 10.4423 57.2455 10.6747 57.8971 10.6747C58.5488 10.6747 59.0836 10.4423 59.5015 9.97935C59.9194 9.51644 60.1274 8.91646 60.1274 8.1774C60.1274 7.44033 59.9194 6.83637 59.5015 6.3675C59.0836 5.89864 58.5488 5.66421 57.8971 5.66421C57.2455 5.66421 56.7107 5.89864 56.2928 6.3675C55.8749 6.83637 55.6669 7.44033 55.6669 8.1774Z" fill="white"/>
<path d="M69.6802 3.51863C70.7716 3.51863 71.7243 3.94578 72.5363 4.80006C73.3484 5.65435 73.7564 6.75102 73.7564 8.09205C73.7564 9.43308 73.3385 10.5556 72.5027 11.4595C71.6668 12.3655 70.7181 12.8165 69.6545 12.8165C68.5908 12.8165 67.7074 12.3754 67.0063 11.4933C67.0063 12.1509 66.4755 12.6833 65.8199 12.6833H65.6872C65.0316 12.6833 64.5007 12.1509 64.5007 11.4933V1.50808C64.5007 0.814715 65.0613 0.250488 65.7545 0.250488C66.4458 0.250488 67.0083 0.812728 67.0083 1.50808V4.6749C67.6975 3.90406 68.5888 3.51863 69.6802 3.51863ZM66.9746 8.18543C66.9746 8.91654 67.1786 9.51454 67.5846 9.97744C67.9907 10.4403 68.4839 10.6728 69.0622 10.6728C69.6406 10.6728 70.1476 10.4403 70.5814 9.97744C71.0152 9.51454 71.2331 8.91852 71.2331 8.19337C71.2331 7.46822 71.0211 6.8583 70.5973 6.36758C70.1734 5.87686 69.6683 5.63051 69.0781 5.63051C68.4878 5.63051 67.9887 5.87289 67.5827 6.35963C67.1766 6.84439 66.9746 7.45431 66.9746 8.18543Z" fill="white"/>
<path d="M75.8362 2.52114C75.553 2.23704 75.4104 1.88738 75.4104 1.47414C75.4104 1.06091 75.553 0.711244 75.8362 0.427143C76.1195 0.143043 76.4681 0 76.8801 0C77.292 0 77.6406 0.143043 77.9239 0.427143C78.2071 0.711244 78.3497 1.06091 78.3497 1.47414C78.3497 1.88738 78.2071 2.23704 77.9239 2.52114C77.6406 2.80524 77.292 2.94828 76.8801 2.94828C76.4681 2.94828 76.1195 2.80723 75.8362 2.52114ZM76.8801 12.6832C76.1888 12.6832 75.6263 12.1209 75.6263 11.4256V4.92705C75.6263 4.23369 76.1868 3.66946 76.8801 3.66946C77.5713 3.66946 78.1338 4.2317 78.1338 4.92705V11.4276C78.1319 12.1209 77.5713 12.6832 76.8801 12.6832Z" fill="white"/>
<path d="M81.7584 12.6833C81.0671 12.6833 80.5046 12.1211 80.5046 11.4258V1.50808C80.5046 0.814715 81.0652 0.250488 81.7584 0.250488C82.4497 0.250488 83.0122 0.812728 83.0122 1.50808V11.4277C83.0102 12.1211 82.4497 12.6833 81.7584 12.6833Z" fill="white"/>
<path d="M92.4124 10.5595C92.8541 11.0383 92.7352 11.8012 92.1747 12.131C91.4003 12.5899 90.5407 12.8184 89.5998 12.8184C88.2351 12.8184 87.1081 12.3972 86.2168 11.5529C85.3255 10.7105 84.8799 9.57806 84.8799 8.15955C84.8799 6.74104 85.3335 5.61258 86.2406 4.77419C87.1478 3.9358 88.2193 3.5166 89.4552 3.5166C90.6912 3.5166 91.7409 3.8901 92.6045 4.63909C93.4681 5.38809 93.8999 6.41522 93.8999 7.72247C93.8999 8.46352 93.3017 9.0635 92.5629 9.0635H87.3518C87.429 9.55621 87.6865 9.95753 88.1203 10.2694C88.554 10.5833 89.0452 10.7383 89.5899 10.7383C90.1762 10.7383 90.6932 10.6072 91.1408 10.3429C91.5567 10.1026 92.0876 10.2059 92.4124 10.5595ZM90.7605 6.03178C90.4159 5.74172 89.994 5.59669 89.4988 5.59669C89.0036 5.59669 88.5501 5.74768 88.1381 6.04966C87.7261 6.35164 87.4864 6.75892 87.4191 7.27348H91.3607C91.3072 6.73508 91.1051 6.32184 90.7605 6.03178Z" fill="white"/>
<path d="M96.9581 12.6833C96.2669 12.6833 95.7043 12.1211 95.7043 11.4258V1.50808C95.7043 0.814715 96.2649 0.250488 96.9581 0.250488C97.6494 0.250488 98.2119 0.812728 98.2119 1.50808V6.63579L100.66 4.0173C100.878 3.78485 101.181 3.65373 101.498 3.65373C102.506 3.65373 103.025 4.86165 102.336 5.59674L100.733 7.3073L103.015 10.7562C103.562 11.5827 102.971 12.6853 101.983 12.6853C101.569 12.6853 101.181 12.4767 100.951 12.131L99.0299 9.23441L98.2119 10.0887V11.4297C98.2119 12.1211 97.6494 12.6833 96.9581 12.6833Z" fill="white"/>
<path d="M107.198 16.2354C106.669 16.2354 106.16 16.1063 105.667 15.848C105.101 15.552 104.914 14.8229 105.249 14.2765C105.526 13.8216 106.093 13.613 106.588 13.8116C106.772 13.8851 106.958 13.9229 107.149 13.9229C107.382 13.9229 107.582 13.8077 107.751 13.5792C107.917 13.3507 108 13.1064 108 12.8501C108 12.6196 107.065 10.1263 105.198 5.37208C104.877 4.55554 105.477 3.66947 106.352 3.66947C106.863 3.66947 107.323 3.98337 107.509 4.46018L109.389 9.28193L111.268 4.46018C111.455 3.98337 111.914 3.66748 112.425 3.66748C113.301 3.66748 113.903 4.55356 113.58 5.37009L110.074 14.2904C109.828 14.9043 109.448 15.3811 108.929 15.7229C108.408 16.0646 107.832 16.2354 107.198 16.2354Z" fill="white"/>
<path d="M121.915 12.6832H121.73C121.13 12.6832 120.645 12.1965 120.645 11.5945C119.999 12.4091 119.199 12.8183 118.248 12.8183C117.296 12.8183 116.498 12.5422 115.852 11.9899C115.206 11.4376 114.883 10.7005 114.883 9.77866C114.883 8.85682 115.218 8.16743 115.886 7.7085C116.553 7.25156 117.466 7.0211 118.625 7.0211H120.497V6.97143C120.497 6.00986 119.989 5.53106 118.977 5.53106C118.544 5.53106 118.084 5.61848 117.599 5.79132C117.421 5.8549 117.252 5.92443 117.094 5.99993C116.652 6.21052 116.123 6.0794 115.846 5.67411C115.505 5.17941 115.676 4.494 116.21 4.22579C117.147 3.75693 118.175 3.52051 119.294 3.52051C120.386 3.52051 121.277 3.79467 121.966 4.34102C122.657 4.88737 123.002 5.75357 123.002 6.93766V11.5965C123 12.1965 122.515 12.6832 121.915 12.6832ZM120.479 9.2482V8.81311H118.908C117.906 8.81311 117.405 9.12701 117.405 9.75084C117.405 10.0747 117.524 10.323 117.763 10.4959C118.003 10.6687 118.346 10.7561 118.791 10.7561C119.237 10.7561 119.629 10.619 119.97 10.3449C120.308 10.0727 120.479 9.70713 120.479 9.2482Z" fill="white"/>
<path d="M14.4728 1.39258C6.48077 1.39258 0 7.89112 0 15.9095C0 23.9279 6.48077 30.4264 14.4728 30.4264C22.4668 30.4264 28.9456 23.9259 28.9456 15.9095C28.9456 7.89112 22.4668 1.39258 14.4728 1.39258ZM17.9826 21.971C17.9826 22.406 17.626 22.7637 17.1923 22.7637H11.3156C10.8818 22.7637 10.5253 22.406 10.5253 21.971V10.2871C10.5253 9.852 10.8799 9.4944 11.3156 9.4944H17.1923C17.626 9.4944 17.9826 9.852 17.9826 10.2871V21.971Z" fill="white"/>
</g>
<defs>
<clipPath id="clip0_614_1556">
<rect width="123" height="32" fill="white"/>
</clipPath>
</defs>
</svg>
